<?xml version="1.0" standalone="no"?>
<!DOCTYPE svg PUBLIC "-//W3C//DTD SVG 20010904//EN"
 "http://www.w3.org/TR/2001/REC-SVG-20010904/DTD/svg10.dtd">
<svg version="1.0" xmlns="http://www.w3.org/2000/svg"
 width="700.000000pt" height="700.000000pt" viewBox="0 0 700.000000 700.000000"
 preserveAspectRatio="xMidYMid meet">
<metadata>
Created by potrace 1.11, written by Peter Selinger 2001-2013
</metadata>
<g transform="translate(0.000000,700.000000) scale(0.100000,-0.100000)"
fill="#000000" stroke="none">
<path d="M3390 6773 c-98 -17 -248 -88 -430 -204 -8 -5 -190 -112 -405 -237
-214 -125 -562 -329 -773 -452 -210 -124 -401 -236 -425 -249 -23 -13 -54 -31
-69 -40 -28 -17 -213 -126 -257 -151 -110 -64 -164 -107 -226 -181 -64 -76
-126 -216 -140 -319 -14 -95 -12 -2833 1 -2920 21 -127 67 -229 152 -328 69
-83 117 -115 388 -267 64 -36 485 -275 524 -297 60 -35 103 -60 150 -86 25
-14 92 -52 150 -85 58 -34 123 -71 145 -83 22 -12 85 -48 140 -79 55 -32 183
-105 285 -162 102 -58 201 -115 220 -126 19 -11 55 -31 80 -45 25 -14 92 -52
150 -85 231 -132 278 -149 425 -153 104 -3 186 10 265 42 25 10 155 81 290
157 135 77 265 151 290 165 280 158 510 288 530 301 14 8 34 21 45 27 11 6 44
24 73 40 29 16 61 34 70 39 63 37 752 429 817 465 175 95 224 129 295 201 87
88 140 179 171 295 21 78 21 91 23 1484 0 773 -3 1436 -7 1474 -21 184 -128
367 -272 466 -22 15 -146 89 -275 164 -344 202 -403 236 -420 247 -8 5 -23 12
-32 15 -10 4 -18 10 -18 15 0 5 -4 9 -8 9 -5 0 -121 66 -258 146 -137 80 -267
156 -289 169 -22 12 -247 144 -500 292 -472 276 -525 305 -585 319 -19 4 -42
9 -50 12 -22 6 -211 10 -240 5z m260 -486 c47 -26 92 -52 100 -57 29 -18 145
-87 190 -112 25 -14 95 -54 155 -90 181 -106 1378 -807 1431 -838 16 -10 67
-39 113 -66 45 -27 102 -60 126 -74 58 -33 93 -67 118 -115 l22 -40 1 -1405
c1 -1518 4 -1434 -51 -1506 -22 -29 -58 -52 -235 -152 -25 -14 -137 -78 -250
-142 -113 -64 -225 -128 -250 -142 -25 -14 -94 -54 -155 -88 -216 -123 -551
-313 -585 -333 -19 -10 -197 -112 -395 -225 -198 -113 -378 -213 -400 -223
-51 -24 -119 -24 -170 0 -22 10 -150 81 -285 158 -135 77 -265 151 -290 165
-25 14 -88 50 -140 80 -52 30 -117 67 -145 82 -47 26 -152 86 -380 216 -55 32
-122 70 -150 85 -27 15 -95 53 -150 85 -55 32 -233 133 -395 225 -162 92 -306
177 -318 189 -13 11 -34 39 -45 61 l-22 40 0 1415 1 1415 21 40 c12 22 34 52
50 66 15 14 174 112 353 216 179 105 469 275 645 378 176 103 336 197 355 208
76 42 206 120 232 138 15 11 29 19 32 19 3 0 57 32 122 70 64 39 118 70 119
70 2 0 50 28 107 61 140 84 190 113 271 156 69 38 142 29 247 -30z"/>
<path d="M4874 4620 c-11 -4 -178 -99 -370 -211 -192 -111 -387 -225 -434
-251 -47 -27 -92 -53 -100 -59 -8 -5 -122 -71 -253 -147 l-239 -139 -321 185
c-177 101 -344 197 -372 212 -27 15 -90 51 -140 80 -49 29 -108 62 -130 75
-22 12 -119 67 -215 122 -96 56 -194 107 -218 114 -128 38 -265 -76 -266 -221
0 -100 36 -141 203 -236 64 -36 132 -75 151 -86 19 -11 271 -155 560 -321 289
-165 532 -304 541 -310 13 -8 15 -106 16 -911 0 -994 -3 -936 64 -1004 85 -86
222 -89 305 -4 72 73 67 7 68 1025 l1 918 250 146 c138 80 270 157 295 171 25
14 108 62 185 107 77 45 244 142 370 215 272 158 280 163 310 215 80 138 -31
326 -191 324 -27 0 -58 -4 -70 -9z"/>
</g>
</svg>
